<svg xmlns="http://www.w3.org/2000/svg" viewBox="0 0 841.9 595.3"><g fill="#61DAFB"><path d="M666.3 296.5c0-32.5-40.7-63.3-103.1-82.4 14.4-63.6 8-114.2-20.2-130.4-6.5-3.8-14.1-5.6-22.4-5.6v22.3c4.6 0 8.3.9 11.4 2.6 13.6 7.8 19.5 37.5 14.9 75.7-1.1 9.4-2.9 19.3-5.1 29.4-19.6-4.8-41-8.5-63.5-10.9-13.5-18.5-27.5-35.3-41.6-50 32.6-30.3 63.2-46.9 84-46.9V78c-27.5 0-63.5 19.6-99.9 53.6-36.4-33.8-72.4-53.2-99.9-53.2v22.3c20.7 0 51.4 16.5 84 46.6-14 14.7-28 31.4-41.3 49.9-22.6 2.4-43.9 6.1-63.7 10.9-2.2-10-4-19.9-5.1-29.4-4.6-38.2 1.3-67.9 14.9-75.7 3.1-1.7 6.9-2.6 11.4-2.6V78.1c-8.4 0-16 1.8-22.6 5.6-28.1 16.2-34.4 66.7-19.9 130.1-62.2 19.2-102.7 49.9-102.7 82.3 0 32.5 40.7 63.3 103.1 82.4-14.4 63.6-8 114.2 20.2 130.4 6.5 3.8 14.1 5.6 22.5 5.6 27.5 0 63.5-19.6 99.9-53.6 36.4 33.8 72.4 53.2 99.9 53.2 8.4 0 16-1.8 22.6-5.6 28.1-16.2 34.4-66.7 19.9-130.1 62-19.1 102.5-49.9 102.5-82.3zM510.6 300c-.3 13.3-1.1 26.5-2.4 39.5-1.2 13-2.8 25.9-4.8 38.6-22.8-1.2-46.8-2.3-71.5-2.3s-48.7 1.1-71.5 2.3c-2-12.7-3.6-25.6-4.8-38.6-1.3-13-2.1-26.2-2.4-39.5s.3-13.3 1.1-26.5 2.8-25.9 4.8-38.6c22.8 1.2 46.8 2.3 71.5 2.3s48.7-1.1 71.5-2.3c2 12.7 3.6 25.6 4.8 38.6s1.3 13.3 1.1 26.5z"/><ellipse cx="420.9" cy="296.5" rx="45.7" ry="103.9"/><ellipse cx="420.9" cy="296.5" rx="103.9" ry="45.7" transform="rotate(-90 420.9 296.5)"/></g></svg>